<?xml version="1.0" encoding="UTF-8" standalone="no"?>
<svg
   xmlns:dc="http://purl.org/dc/elements/1.1/"
   xmlns:cc="http://creativecommons.org/ns#"
   xmlns:rdf="http://www.w3.org/1999/02/22-rdf-syntax-ns#"
   xmlns:svg="http://www.w3.org/2000/svg"
   xmlns="http://www.w3.org/2000/svg"
   xmlns:sodipodi="http://sodipodi.sourceforge.net/DTD/sodipodi-0.dtd"
   xmlns:inkscape="http://www.inkscape.org/namespaces/inkscape"
   version="1.1"
   width="48"
   height="48"
   viewBox="0 0 48 48"
   id="svg30"
   sodipodi:docname="logo.svg"
   inkscape:version="1.0.2 (e86c870879, 2021-01-15)"
   inkscape:export-filename="/home/lukas/Code/vscode-materialdesignicons-intellisense/logo/alpha-d (1).png"
   inkscape:export-xdpi="256"
   inkscape:export-ydpi="256">
  <metadata
     id="metadata36">
    <rdf:RDF>
      <cc:Work
         rdf:about="">
        <dc:format>image/svg+xml</dc:format>
        <dc:type
           rdf:resource="http://purl.org/dc/dcmitype/StillImage" />
        <dc:title></dc:title>
      </cc:Work>
    </rdf:RDF>
  </metadata>
  <defs
     id="defs34" />
  <sodipodi:namedview
     pagecolor="#0091ea"
     bordercolor="#666666"
     borderopacity="1"
     objecttolerance="5.9"
     gridtolerance="10"
     guidetolerance="10"
     inkscape:pageopacity="1"
     inkscape:pageshadow="2"
     inkscape:window-width="1920"
     inkscape:window-height="1020"
     id="namedview32"
     showgrid="true"
     inkscape:zoom="12.079741"
     inkscape:cx="26.373815"
     inkscape:cy="23.532222"
     inkscape:window-x="1920"
     inkscape:window-y="28"
     inkscape:window-maximized="1"
     inkscape:current-layer="svg30">
    <inkscape:grid
       type="xygrid"
       id="grid173"
       spacingx="0.5"
       spacingy="0.5"
       empspacing="10"
       enabled="true"
       visible="true"
       dotted="false"
       color="#ff3f55"
       opacity="0.16470588"
       empcolor="#3f3fff"
       empopacity="0.50980392" />
  </sodipodi:namedview>
  <path
     d="m 37.5,18.999999 v 2 h -1 V 27 h 1 v 2 h -4 v -2 h 1 v -6.000001 h -1 v -2 z"
     id="path56-3"
     inkscape:export-xdpi="192"
     inkscape:export-ydpi="192"
     style="fill:#ffffff;stroke:none;fill-opacity:1"
     inkscape:label="I2" />
  <path
     d="m 32.5,19 v 2 h -1 v 6.000001 h 1 v 2 h -4 v -2 h 1 V 21 h -1 v -2 z"
     id="path56"
     inkscape:export-xdpi="192"
     inkscape:export-ydpi="192"
     style="fill:#ffffff;stroke:none;fill-opacity:1"
     inkscape:label="I1" />
  <path
     d="m 21.5,19 v 10 h 4 a 2,2 0 0 0 2,-2 v -6 a 2,2 0 0 0 -2,-2 h -4 m 2,2 h 2 v 6 h -2 z"
     id="path28"
     inkscape:export-xdpi="192"
     inkscape:export-ydpi="192"
     style="fill:#ffffff;stroke:none;fill-opacity:1"
     inkscape:label="D" />
  <path
     d="m 12.5,19 a 2,2 0 0 0 -2,2 v 8 h 2 v -8 h 2 v 7 h 2 v -7 h 2 v 8 h 2 v -8 a 2,2 0 0 0 -2,-2 z"
     id="path123"
     inkscape:export-xdpi="192"
     inkscape:export-ydpi="192"
     style="fill:#ffffff;stroke:none;fill-opacity:1"
     inkscape:label="M" />
  <path
     d="m 3.5,3.5 h 6 v 2 h 29 v -2 h 6 v 6 h -2 v 29 h 2 v 6 h -6 v -2 h -29 v 2 h -6 v -6 h 2 v -29 h -2 v -6 m 35,6 v -2 h -29 v 2 h -2 v 29 h 1.999999 v 2 H 38.5 v -2 h 2 v -29 h -2 m -33,-4 v 2 h 2 v -2 h -2 m 35,0 v 2 h 2 v -2 h -2 m -35,35 v 2 h 2 v -2 h -2 m 35,0 v 2 h 2 v -2 z"
     id="path162-7"
     style="fill:#ffffff;stroke-width:1;stroke:none;fill-opacity:1"
     sodipodi:nodetypes="cccccccccccccccccccccccccccccccccccccccccccccccccccccc"
     inkscape:export-xdpi="192"
     inkscape:export-ydpi="192"
     inkscape:label="border" />
</svg>
